<?xml version="1.0" encoding="UTF-8"?>
<svg version="1.1" xmlns="http://www.w3.org/2000/svg" width="512" height="512">
<path d="M0 0 C0.9005864 -0.00701431 1.80117279 -0.01402863 2.72904968 -0.02125549 C5.61759506 -0.03865309 8.50593541 -0.04510727 11.39453125 -0.046875 C12.87509003 -0.04788712 12.87509003 -0.04788712 14.38555908 -0.04891968 C28.85428676 -0.03318992 42.98044345 0.32301416 57.20703125 3.203125 C58.12484375 3.38536621 59.04265625 3.56760742 59.98828125 3.75537109 C66.43964765 5.06690057 72.83133002 6.56447537 79.20703125 8.203125 C80.33915039 8.49292236 80.33915039 8.49292236 81.49414062 8.78857422 C99.2256773 13.42931229 116.05539093 20.60129356 132.20703125 29.203125 C133.30144531 29.77933594 133.30144531 29.77933594 134.41796875 30.3671875 C142.56273445 34.67585195 150.52370994 39.17055724 158.08203125 44.453125 C158.64680176 44.84097168 159.21157227 45.22881836 159.79345703 45.62841797 C166.97587399 50.82537979 169.13026911 57.17161854 171.26953125 65.390625 C171.65467896 66.83743652 171.65467896 66.83743652 172.04760742 68.31347656 C174.4217014 77.51431585 176.06007959 86.77497192 177.20703125 96.203125 C177.30129395 96.925 177.39555664 97.646875 177.49267578 98.390625 C178.44012962 106.47194861 178.45070136 114.57780121 178.45703125 122.703125 C178.45770599 123.49266571 178.45838074 124.28220642 178.45907593 125.09567261 C178.43354454 144.18289188 176.66114237 163.01259345 174.57421875 181.96777344 C172.05176225 204.89703234 169.71811337 227.67590569 169.70703125 250.765625 C169.70281158 251.62993134 169.69859192 252.49423767 169.69424438 253.38473511 C169.66118571 268.57948968 171.3173471 283.5573846 175.76953125 298.140625 C176.01783691 298.95781006 176.26614258 299.77499512 176.52197266 300.61694336 C182.83411866 320.18159556 195.36854297 340.94234975 212.20703125 353.203125 C231.51416925 306.79724435 240.37294386 259.09706687 229.20703125 209.203125 C229.02188965 208.36168945 228.83674805 207.52025391 228.64599609 206.65332031 C221.57647524 175.33180536 207.90166237 147.84075861 189.20581055 121.95117188 C188.703479 121.25056641 188.20114746 120.54996094 187.68359375 119.828125 C187.23064941 119.20164062 186.77770508 118.57515625 186.31103516 117.9296875 C183.78335811 113.97662865 183.62461413 109.74112506 184.20703125 105.203125 C185.96756821 99.91194599 188.44762821 96.25402439 193.20703125 93.203125 C196.02531303 92.26369774 198.01924794 91.97729873 200.95703125 91.890625 C201.776875 91.85324219 202.59671875 91.81585938 203.44140625 91.77734375 C209.63425846 92.73076309 213.65880676 96.15788653 217.32666016 100.97119141 C217.78218262 101.60460449 218.23770508 102.23801758 218.70703125 102.890625 C219.2076709 103.57560059 219.70831055 104.26057617 220.22412109 104.96630859 C232.30558942 121.88478835 242.34296579 139.9729126 250.20703125 159.203125 C250.70106445 160.40412842 250.70106445 160.40412842 251.20507812 161.62939453 C259.48335453 182.07538293 264.14767509 203.40787643 267.20703125 225.203125 C267.47181274 227.03991821 267.47181274 227.03991821 267.74194336 228.91381836 C268.3208789 233.62721873 268.38708679 238.31030567 268.41015625 243.0546875 C268.41585632 243.99001312 268.4215564 244.92533875 268.4274292 245.88900757 C268.4368375 247.86739997 268.4433965 249.84580776 268.44726562 251.82421875 C268.45684598 254.77113464 268.48785642 257.71731356 268.51953125 260.6640625 C268.61611699 277.92975869 266.75749347 294.84647441 262.95703125 311.703125 C262.74796143 312.64124023 262.5388916 313.57935547 262.32348633 314.54589844 C249.57816493 369.7310658 217.78361101 421.08418753 173.20703125 456.203125 C172.02753906 457.18345703 172.02753906 457.18345703 170.82421875 458.18359375 C158.92594489 468.0202855 145.79166821 475.93972098 132.20703125 483.203125 C131.58280273 483.54053711 130.95857422 483.87794922 130.31542969 484.22558594 C109.34411225 495.47393778 86.96548602 503.12199405 63.70703125 507.890625 C62.23097412 508.19468262 62.23097412 508.19468262 60.72509766 508.50488281 C44.64902695 511.65334328 28.92944567 512.57947457 12.58203125 512.515625 C11.12719833 512.51289078 11.12719833 512.51289078 9.64297485 512.51010132 C-4.7061792 512.46471553 -18.67577134 511.96885438 -32.79296875 509.203125 C-33.70594727 509.03683594 -34.61892578 508.87054688 -35.55957031 508.69921875 C-77.19159155 501.03949423 -115.95349081 482.79687617 -148.79296875 456.203125 C-149.33743652 455.76307129 -149.8819043 455.32301758 -150.44287109 454.86962891 C-164.51470804 443.39137637 -177.72977522 430.62593436 -188.79296875 416.203125 C-189.55222656 415.27242188 -190.31148437 414.34171875 -191.09375 413.3828125 C-223.07811345 373.49162874 -243.72681874 319.73434326 -243.99609375 268.41015625 C-244.00310806 267.50956985 -244.01012238 266.60898346 -244.01734924 265.68110657 C-244.03474684 262.79256119 -244.04120102 259.90422084 -244.04296875 257.015625 C-244.04398087 255.53506622 -244.04398087 255.53506622 -244.04501343 254.02459717 C-244.02928235 239.55464844 -243.66840223 225.43142047 -240.79296875 211.203125 C-240.61072754 210.27999512 -240.42848633 209.35686523 -240.24072266 208.40576172 C-233.46129546 174.83711927 -233.46129546 174.83711927 -225.79296875 168.203125 C-221.25576853 165.27915153 -217.11867693 164.31550697 -211.79296875 165.203125 C-205.95675592 167.0813244 -202.72071167 169.69896831 -199.79296875 175.203125 C-197.25926886 182.80422467 -199.50205599 189.77691628 -201.60546875 197.203125 C-217.0081282 254.28303899 -209.72177065 314.54948178 -180.79296875 366.203125 C-166.72225498 390.17993083 -148.68685498 412.02438299 -126.79296875 429.203125 C-125.84292969 429.98171875 -124.89289063 430.7603125 -123.9140625 431.5625 C-101.14505744 449.82423075 -74.54708543 461.75045007 -46.79296875 470.203125 C-26.13234054 444.80680224 -12.06378999 415.57073139 -14.79296875 382.203125 C-17.35483395 363.63152564 -26.53104991 346.86931208 -37.79296875 332.203125 C-38.40914062 331.39230469 -39.0253125 330.58148438 -39.66015625 329.74609375 C-48.13448668 318.86308434 -57.82356476 309.0870962 -67.54296875 299.328125 C-68.33485596 298.53156494 -69.12674316 297.73500488 -69.94262695 296.91430664 C-74.14997703 292.71839556 -78.43602583 288.68334103 -82.93945312 284.80712891 C-85.74392865 282.38017893 -88.45389091 279.85514234 -91.16796875 277.328125 C-95.0182023 273.75798927 -98.88176349 270.20664762 -102.79296875 266.703125 C-107.17477468 262.77509832 -111.50462702 258.79381833 -115.82275391 254.79614258 C-118.55449505 252.26757217 -121.2908497 249.74467538 -124.04296875 247.23828125 C-128.85750092 242.85236894 -133.61447507 238.44482358 -138.171875 233.7890625 C-139.87406577 232.12378671 -141.65593382 230.60789867 -143.48046875 229.078125 C-148.89075261 224.41227943 -153.58721707 219.07362992 -158.36621094 213.77832031 C-159.62608219 212.38737416 -160.89990156 211.00908928 -162.17578125 209.6328125 C-168.46169659 202.80617326 -174.18802165 195.59118992 -179.79296875 188.203125 C-180.21723145 187.64641113 -180.64149414 187.08969727 -181.07861328 186.51611328 C-211.98967388 145.62750831 -211.98967388 145.62750831 -209.69921875 128.21484375 C-204.55004598 111.10272217 -188.58622574 94.75567105 -176.5078125 82.0703125 C-174.11406795 79.54224272 -171.81801141 76.96238492 -169.54296875 74.328125 C-165.91073533 70.22793513 -161.98282384 66.71973842 -157.79296875 63.203125 C-156.90480469 62.41550781 -156.01664062 61.62789062 -155.1015625 60.81640625 C-140.43247372 47.89421125 -124.19436998 37.07549053 -106.79296875 28.203125 C-105.96684082 27.78047363 -105.14071289 27.35782227 -104.28955078 26.92236328 C-72.40675834 10.78534865 -35.92468067 0.1884807 0 0 Z M-130.79296875 85.203125 C-131.56253906 85.86183594 -132.33210938 86.52054688 -133.125 87.19921875 C-146.8598045 99.24849168 -159.37520102 112.15827016 -169.79296875 127.203125 C-170.24486572 127.79343506 -170.6967627 128.38374512 -171.16235352 128.99194336 C-172.59789053 130.919506 -172.59789053 130.919506 -173.79296875 134.203125 C-172.80021049 137.22045912 -171.9234422 139.05381346 -170.23046875 141.640625 C-169.5977002 142.67606445 -169.5977002 142.67606445 -168.95214844 143.73242188 C-167.60045544 145.91372016 -166.20362462 148.05957217 -164.79296875 150.203125 C-164.35936035 150.87617676 -163.92575195 151.54922852 -163.47900391 152.24267578 C-158.50178091 159.93337914 -153.10385814 167.25971158 -147.35546875 174.390625 C-146.87883789 174.98294922 -146.40220703 175.57527344 -145.91113281 176.18554688 C-136.87789949 187.16758922 -126.85608847 197.30709813 -116.79150391 207.33496094 C-115.02648331 209.0945598 -113.26695742 210.85952897 -111.5078125 212.625 C-106.30519744 217.83071783 -101.10122825 222.97042362 -95.49707031 227.74853516 C-92.77432547 230.07262022 -90.16393149 232.5156505 -87.54296875 234.953125 C-86.41681933 235.99625858 -85.29051364 237.03922349 -84.1640625 238.08203125 C-83.60315918 238.60168457 -83.04225586 239.12133789 -82.46435547 239.65673828 C-76.2998551 245.36020678 -70.10789 251.03361497 -63.85546875 256.640625 C-62.16693245 258.16030767 -60.47948891 259.68120515 -58.79296875 261.203125 C-57.83132812 262.07066406 -56.8696875 262.93820312 -55.87890625 263.83203125 C-43.90099231 274.71761377 -31.80283498 285.84116574 -21.8203125 298.62109375 C-19.60732763 301.43955811 -17.26584731 304.12128841 -14.91796875 306.828125 C1.52993255 326.59625483 13.89642702 350.75769259 18.20703125 376.203125 C18.33851563 376.96496094 18.47 377.72679687 18.60546875 378.51171875 C23.18080765 411.21920897 11.42700327 446.70161017 -7.0625 473.5703125 C-8.97605279 475.95657873 -8.97605279 475.95657873 -8.79296875 478.203125 C48.64667915 484.29520887 106.28463716 465.93248913 151.20703125 430.203125 C152.05491211 429.53095947 152.05491211 429.53095947 152.91992188 428.84521484 C168.91076263 416.0459031 182.98060105 401.36536888 194.20703125 384.203125 C193.69954346 383.71658447 193.19205566 383.23004395 192.66918945 382.72875977 C156.18828834 347.55001213 136.81364986 306.80517487 135.88174438 255.70167542 C135.5872635 232.36462279 137.6756482 209.36963432 140.17619324 186.1930542 C145.85792813 136.19794525 145.85792813 136.19794525 141.56445312 86.27001953 C141.20703125 84.203125 141.20703125 84.203125 140.97265625 80.60546875 C140.52713286 76.41012349 139.84617867 73.62674946 136.56933594 70.78076172 C131.42968151 67.02853726 125.85471523 64.10620452 120.20703125 61.203125 C118.82377317 60.46437537 117.4409332 59.72484213 116.05859375 58.984375 C85.77701886 43.07613408 52.37612134 34.38010119 18.20703125 33.203125 C16.70462891 33.14125 16.70462891 33.14125 15.171875 33.078125 C-37.48563509 31.96808526 -90.96022576 50.74811497 -130.79296875 85.203125 Z " fill="#000000" transform="translate(243.79296875,-0.203125)"/>
</svg>
